<svg width="72" height="134" viewBox="0 0 72 134" fill="none" xmlns="http://www.w3.org/2000/svg">
<path d="M68.4734 66.7498H49.8281C49.6195 66.7498 49.4132 66.7063 49.2223 66.622C49.0315 66.5378 48.8603 66.4146 48.7198 66.2605C48.5792 66.1063 48.4723 65.9246 48.406 65.7268C48.3397 65.529 48.3153 65.3196 48.3345 65.1118L53.5948 8.11415C54.3032 0.435776 44.2749 -3.08583 40.0273 3.34967L0.951705 62.555C-0.234837 64.3534 1.05451 66.7498 3.2093 66.7498H21.8546C22.0632 66.7498 22.2695 66.7933 22.4603 66.8775C22.6512 66.9618 22.8223 67.0849 22.9629 67.239C23.1035 67.3932 23.2103 67.575 23.2766 67.7727C23.343 67.9705 23.3673 68.18 23.3481 68.3877L18.0879 125.385C17.3795 133.064 27.4077 136.585 31.6553 130.15L70.731 70.9446C71.9175 69.1461 70.6282 66.7498 68.4734 66.7498Z" fill="url(#paint0_linear_303_407)"/>
<path d="M68.4737 66.7496H49.8284C49.6198 66.7496 49.4135 66.7061 49.2226 66.6219C49.0318 66.5376 48.8606 66.4145 48.7201 66.2603C48.5795 66.1062 48.4727 65.9244 48.4063 65.7266C48.34 65.5288 48.3157 65.3194 48.3348 65.1117L53.5951 8.11399C53.8507 5.34797 52.7085 3.12558 50.9488 1.70947L31.5366 38.5986C29.2103 43.0195 28.3593 48.0687 29.1082 53.0079C29.8572 57.9471 32.1667 62.5171 35.6991 66.0497C39.1121 69.4624 41.3866 73.8469 42.211 78.6025C43.0354 83.3582 42.3695 88.2524 40.3044 92.6148L21.5021 132.336C24.6399 134.275 29.1516 133.943 31.6556 130.149L70.7313 70.9437C71.9178 69.1459 70.6285 66.7496 68.4737 66.7496Z" fill="url(#paint1_linear_303_407)"/>
<defs>
<linearGradient id="paint0_linear_303_407" x1="12.9256" y1="50.9353" x2="48.5669" y2="75.5323" gradientUnits="userSpaceOnUse">
<stop stop-color="#FEF0AE"/>
<stop offset="1" stop-color="#FBC56D"/>
</linearGradient>
<linearGradient id="paint1_linear_303_407" x1="47.2455" y1="68.6065" x2="19.636" y2="65.594" gradientUnits="userSpaceOnUse">
<stop stop-color="#DC8758" stop-opacity="0"/>
<stop offset="0.215" stop-color="#DD8654" stop-opacity="0.215"/>
<stop offset="0.429" stop-color="#E28448" stop-opacity="0.429"/>
<stop offset="0.642" stop-color="#EA8034" stop-opacity="0.642"/>
<stop offset="0.854" stop-color="#F47B18" stop-opacity="0.854"/>
<stop offset="1" stop-color="#FE7701"/>
</linearGradient>
</defs>
</svg>
