<svg width="17" height="17" viewBox="0 0 17 17" fill="none" xmlns="http://www.w3.org/2000/svg">
<path d="M14.4219 3.09375H11.8438V2.57812C11.8438 2.16787 11.6808 1.77441 11.3907 1.48432C11.1006 1.19422 10.7071 1.03125 10.2969 1.03125H7.20312C6.79287 1.03125 6.39941 1.19422 6.10932 1.48432C5.81922 1.77441 5.65625 2.16787 5.65625 2.57812V3.09375H3.07812C2.94137 3.09375 2.81022 3.14807 2.71352 3.24477C2.61682 3.34147 2.5625 3.47262 2.5625 3.60938C2.5625 3.74613 2.61682 3.87728 2.71352 3.97398C2.81022 4.07068 2.94137 4.125 3.07812 4.125H3.59375V13.4062C3.59375 13.6798 3.7024 13.9421 3.8958 14.1355C4.08919 14.3289 4.3515 14.4375 4.625 14.4375H12.875C13.1485 14.4375 13.4108 14.3289 13.6042 14.1355C13.7976 13.9421 13.9062 13.6798 13.9062 13.4062V4.125H14.4219C14.5586 4.125 14.6898 4.07068 14.7865 3.97398C14.8832 3.87728 14.9375 3.74613 14.9375 3.60938C14.9375 3.47262 14.8832 3.34147 14.7865 3.24477C14.6898 3.14807 14.5586 3.09375 14.4219 3.09375ZM7.71875 10.8281C7.71875 10.9649 7.66443 11.096 7.56773 11.1927C7.47103 11.2894 7.33988 11.3438 7.20312 11.3438C7.06637 11.3438 6.93522 11.2894 6.83852 11.1927C6.74182 11.096 6.6875 10.9649 6.6875 10.8281V6.70312C6.6875 6.56637 6.74182 6.43522 6.83852 6.33852C6.93522 6.24182 7.06637 6.1875 7.20312 6.1875C7.33988 6.1875 7.47103 6.24182 7.56773 6.33852C7.66443 6.43522 7.71875 6.56637 7.71875 6.70312V10.8281ZM10.8125 10.8281C10.8125 10.9649 10.7582 11.096 10.6615 11.1927C10.5648 11.2894 10.4336 11.3438 10.2969 11.3438C10.1601 11.3438 10.029 11.2894 9.93227 11.1927C9.83557 11.096 9.78125 10.9649 9.78125 10.8281V6.70312C9.78125 6.56637 9.83557 6.43522 9.93227 6.33852C10.029 6.24182 10.1601 6.1875 10.2969 6.1875C10.4336 6.1875 10.5648 6.24182 10.6615 6.33852C10.7582 6.43522 10.8125 6.56637 10.8125 6.70312V10.8281ZM10.8125 3.09375H6.6875V2.57812C6.6875 2.44137 6.74182 2.31022 6.83852 2.21352C6.93522 2.11682 7.06637 2.0625 7.20312 2.0625H10.2969C10.4336 2.0625 10.5648 2.11682 10.6615 2.21352C10.7582 2.31022 10.8125 2.44137 10.8125 2.57812V3.09375Z" fill="#FF3333"/>
</svg>
