<svg width="236" height="93" viewBox="0 0 236 93" fill="none" xmlns="http://www.w3.org/2000/svg">
<path d="M63.6756 39.4839H39.053V46.79H56.517C55.6516 57.0167 47.1301 61.4063 39.0825 61.4063C36.533 61.4175 34.0069 60.9207 31.6515 59.9449C29.2962 58.9691 27.1588 57.5339 25.3643 55.723C23.5697 53.9121 22.1538 51.7619 21.1994 49.3978C20.2449 47.0338 19.771 44.5032 19.8052 41.954C19.8052 30.8935 28.3681 22.3778 39.1061 22.3778C47.3897 22.3778 52.2709 27.6583 52.2709 27.6583L57.3843 22.3601C57.3843 22.3601 50.8156 15.05 38.8386 15.05C23.5871 15.05 11.7891 27.9218 11.7891 41.8242C11.7891 55.4473 22.887 68.7321 39.2241 68.7321C53.5945 68.7321 64.1142 58.887 64.1142 44.3297C64.1142 41.2578 63.6678 39.4839 63.6678 39.4839H63.6756Z" fill="#4885ED"/>
<path d="M83.848 34.1915C73.7432 34.1915 66.502 42.0916 66.502 51.3015C66.502 60.6511 73.523 68.6967 83.966 68.6967C93.4178 68.6967 101.161 61.4731 101.161 51.5021C101.161 40.0955 92.1532 34.1896 83.848 34.1896V34.1915ZM83.9463 40.9687C88.9141 40.9687 93.6223 44.9866 93.6223 51.4589C93.6223 57.7915 88.9338 61.9255 83.9227 61.9255C78.416 61.9255 74.0894 57.5162 74.0894 51.4077C74.0894 45.4291 78.3767 40.9687 83.962 40.9687H83.9463Z" fill="#DB3236"/>
<path d="M121.569 34.1915C111.464 34.1915 104.223 42.0916 104.223 51.3015C104.223 60.6511 111.244 68.6967 121.687 68.6967C131.138 68.6967 138.881 61.4731 138.881 51.5021C138.881 40.0955 129.874 34.1896 121.569 34.1896V34.1915ZM121.667 40.9687C126.635 40.9687 131.343 44.9866 131.343 51.4589C131.343 57.7915 126.654 61.9255 121.643 61.9255C116.137 61.9255 111.81 57.5162 111.81 51.4077C111.81 45.4291 116.097 40.9687 121.683 40.9687H121.667Z" fill="#F4C20D"/>
<path d="M158.567 34.2112C149.292 34.2112 142.004 42.3336 142.004 51.451C142.004 61.835 150.455 68.7223 158.406 68.7223C163.323 68.7223 165.938 66.7694 167.846 64.5294V67.9317C167.846 73.8848 164.231 77.4504 158.776 77.4504C153.505 77.4504 150.862 73.5308 149.926 71.3085L143.294 74.0618C145.646 79.0375 150.382 84.2236 158.831 84.2236C168.074 84.2236 175.079 78.416 175.079 66.2345V35.2477H167.873V38.1701C165.651 35.7708 162.607 34.2112 158.571 34.2112H158.567ZM159.236 40.9766C163.783 40.9766 168.452 44.8588 168.452 51.4884C168.452 58.2282 163.791 61.9412 159.136 61.9412C154.191 61.9412 149.591 57.9292 149.591 51.5513C149.591 44.9276 154.37 40.9766 159.236 40.9766Z" fill="#4885ED"/>
<path d="M207.287 34.1699C198.539 34.1699 191.193 41.1319 191.193 51.3979C191.193 62.2657 199.381 68.7105 208.107 68.7105C215.407 68.7105 219.907 64.7182 222.562 61.1388L216.597 57.1701C215.049 59.5694 212.461 61.9196 208.144 61.9196C203.294 61.9196 201.064 59.2646 199.681 56.6883L222.815 47.0909L221.635 44.2786C219.401 38.7719 214.186 34.1699 207.287 34.1699ZM207.587 40.8055C210.74 40.8055 213.008 42.4811 213.971 44.491L198.521 50.9476C197.852 45.9483 202.592 40.8055 207.568 40.8055H207.587Z" fill="#DB3236"/>
<path d="M180.146 67.6878H187.746V16.8357H180.146V67.6878Z" fill="#3CBA54"/>
</svg>
